<?xml version="1.0" encoding="UTF-8"?>
<svg width="47px" height="47px" viewBox="0 0 47 47" version="1.1" xmlns="http://www.w3.org/2000/svg" xmlns:xlink="http://www.w3.org/1999/xlink">
    <!-- Generator: Sketch 61 (89581) - https://sketch.com -->
    <title>logo</title>
    <desc>Created with Sketch.</desc>
    <g id="Page-1" stroke="none" stroke-width="1" fill="none" fill-rule="evenodd">
        <g id="Desktop-Copy" transform="translate(-128.000000, -84.000000)" fill="#FFFFFF" fill-rule="nonzero">
            <g id="logo" transform="translate(121.000000, 76.000000)">
                <g id="potion-(4)" transform="translate(30.158137, 31.442598) rotate(36.000000) translate(-30.158137, -31.442598) translate(11.658137, 6.442598)">
                    <path d="M20.1747506,2.87445431 L18.5942663,2.87445431 C18.1992384,2.87445431 17.8787441,3.16206594 17.8787441,3.51731145 C17.8787441,3.87222225 18.1992384,4.1601686 18.5942663,4.1601686 L20.1747506,4.1601686 C20.5697785,4.1601686 20.8902728,3.87222225 20.8902728,3.51731145 C20.8902728,3.16206594 20.5697785,2.87445431 20.1747506,2.87445431 Z" id="Path"></path>
                    <path d="M23.2538111,15.5425494 L23.2538111,14.4957013 L24.1351702,14.4957013 C25.4251214,14.4957013 26.474702,13.447336 26.474702,12.1588785 L26.474702,8.94171703 C26.474702,7.65288007 25.4251214,6.60451479 24.1351702,6.60451479 L23.2538111,6.60451479 L23.2538111,2.50701472 C23.2538111,1.21855713 22.2042305,0.17019185 20.9142792,0.17019185 L14.4721174,0.17019185 C13.1821662,0.17019185 12.1325856,1.21855713 12.1325856,2.50701472 L12.1325856,6.60451479 L11.2512265,6.60451479 C9.96127516,6.60451479 8.91169465,7.65288007 8.91169465,8.94133767 L8.91169465,12.1584992 C8.91169465,13.447336 9.96127516,14.4953221 11.2512265,14.4953221 L12.1325856,14.4953221 L12.1325856,15.5421702 C10.5946691,16.0519397 9.13611648,16.7718374 7.78958511,17.685933 C7.45655974,17.9119915 7.37036044,18.3648671 7.59668101,18.6975069 C7.82300157,19.0301467 8.27640212,19.1162462 8.60942749,18.8905669 C9.98291998,17.9578859 11.4836228,17.2459534 13.0697654,16.7744924 C13.3788676,16.6827036 13.5907584,16.3986132 13.5907584,16.0765937 L13.5907584,14.4953221 L21.7952586,14.4953221 L21.7952586,16.0765937 C21.7952586,16.3986132 22.0071493,16.6827036 22.3166313,16.7744924 C29.1214375,18.7976402 33.8737897,25.1678626 33.8737897,32.265948 C33.8737897,41.1778115 26.6152031,48.4279932 17.6930085,48.4279932 C8.77081387,48.4279932 1.51222728,41.1778115 1.51222728,32.265948 C1.51222728,27.8532556 3.26013596,23.7314809 6.43356036,20.6599678 C6.72253676,20.3800498 6.72975171,19.9188297 6.44950908,19.6301878 C6.16926655,19.3411668 5.70789155,19.3335809 5.41853544,19.6138783 C1.95917239,22.9622751 0.0540545087,27.4557568 0.0540545087,32.265948 C0.0540545087,41.9811536 7.96692021,49.8844776 17.6930085,49.8844776 C27.4190968,49.8844776 35.3319625,41.9811536 35.3319625,32.265948 C35.3319625,28.3941272 34.0982115,24.7199179 31.7639959,21.6411983 C29.6169884,18.809019 26.6106463,16.6588082 23.2538111,15.5425494 Z M13.5907584,2.50701472 C13.5907584,2.02151995 13.9860599,1.62667618 14.4721174,1.62667618 L20.9142792,1.62667618 C21.4003368,1.62667618 21.7956383,2.02151995 21.7956383,2.50701472 L21.7956383,6.60451479 L13.5907584,6.60451479 L13.5907584,2.50701472 Z M12.861672,13.039217 L11.2516062,13.039217 C10.7655486,13.039217 10.3698674,12.6443732 10.3698674,12.1588785 L10.3698674,8.94171703 C10.3698674,8.45622226 10.7655486,8.06099912 11.2516062,8.06099912 L12.8597733,8.06099912 C12.8605328,8.06099912 12.8612923,8.06137839 12.861672,8.06137839 C12.8624314,8.06137839 12.8631909,8.06099912 12.8635706,8.06099912 L22.522826,8.06099912 C22.5235855,8.06099912 22.5239652,8.06137839 22.5247247,8.06137839 C22.5251044,8.06137839 22.5258638,8.06099912 22.5266233,8.06099912 L24.1347905,8.06099912 C24.6208481,8.06099912 25.0161496,8.45622226 25.0161496,8.94171703 L25.0161496,12.1588785 C25.0161496,12.6443732 24.6208481,13.039217 24.1347905,13.039217 L12.861672,13.039217 Z" id="Shape"></path>
                    <path d="M5.34799915,24.6977569 C3.90407252,26.9915523 3.14073484,29.6186471 3.14073484,32.2948675 C3.14073484,40.206383 9.60614035,46.6429919 17.5530509,46.6429919 C25.4999615,46.6429919 31.965367,40.206383 31.965367,32.2948675 C31.965367,29.6190249 31.2020293,26.9919302 29.7584823,24.6977569 C29.6252493,24.4857604 29.3918069,24.3572776 29.1409038,24.3572776 L5.96557768,24.3572776 C5.71467457,24.3572776 5.48123215,24.4857604 5.34799915,24.6977569 Z M28.7301969,25.8083771 C29.8943723,27.7889012 30.5077754,30.0229898 30.5077754,32.2948675 C30.5077754,39.4063888 24.6963883,45.1918924 17.5530509,45.1918924 C10.4100931,45.1918924 4.59832639,39.406011 4.59832639,32.2948675 C4.59832639,30.0229898 5.2117295,27.7889012 6.37590486,25.8083771 L28.7301969,25.8083771 Z" id="Shape"></path>
                    <path d="M10.3510311,38.2879103 C11.655687,38.2879103 12.7172323,37.2304289 12.7172323,35.9307674 C12.7172323,34.6311058 11.655687,33.5736245 10.3510311,33.5736245 C9.04599104,33.5736245 7.98482997,34.6311058 7.98482997,35.9307674 C7.98482997,37.2304289 9.04599104,38.2879103 10.3510311,38.2879103 Z M10.3510311,35.0427738 C10.8422454,35.0427738 11.2424372,35.441051 11.2424372,35.9307674 C11.2424372,36.4204838 10.8422454,36.818761 10.3510311,36.818761 C9.85943275,36.818761 9.45962505,36.4204838 9.45962505,35.9307674 C9.45962505,35.441051 9.85943275,35.0427738 10.3510311,35.0427738 L10.3510311,35.0427738 Z" id="Shape"></path>
                    <path d="M14.4803,42.8412055 C15.784956,42.8412055 16.8465012,41.7837242 16.8465012,40.4840626 C16.8465012,39.1844012 15.784956,38.1269198 14.4803,38.1269198 C13.1756441,38.1269198 12.1140989,39.1844012 12.1140989,40.4840626 C12.1140989,41.7837242 13.1756441,42.8412055 14.4803,42.8412055 L14.4803,42.8412055 Z M14.4803,39.5960691 C14.9718984,39.5960691 15.3717061,39.9943462 15.3717061,40.4840626 C15.3717061,40.973779 14.9718984,41.3720563 14.4803,41.3720563 C13.9887016,41.3720563 13.5888939,40.973779 13.5888939,40.4840626 C13.5888939,39.9943462 13.9887016,39.5960691 14.4803,39.5960691 Z" id="Shape"></path>
                    <path d="M15.8820936,34.1170313 C17.1867496,34.1170313 18.2482947,33.0595499 18.2482947,31.7598885 C18.2482947,30.460227 17.1867496,29.4027456 15.8820936,29.4027456 C14.5774376,29.4027456 13.5158925,30.460227 13.5158925,31.7598885 C13.5158925,33.0595499 14.5774376,34.1170313 15.8820936,34.1170313 L15.8820936,34.1170313 Z M15.8820936,30.8718949 C16.3736919,30.8718949 16.7734997,31.2701721 16.7734997,31.7598885 C16.7734997,32.2496049 16.3736919,32.6478821 15.8820936,32.6478821 C15.3908793,32.6478821 14.9906875,32.2496049 14.9906875,31.7598885 C14.9906875,31.2701721 15.3908793,30.8718949 15.8820936,30.8718949 Z" id="Shape"></path>
                    <path d="M29.0792715,6.64693924 L29.9706775,6.64693924 L29.9706775,7.53493281 C29.9706775,7.94086178 30.3009702,8.26950743 30.7080751,8.26950743 C31.11518,8.26950743 31.4454726,7.94086178 31.4454726,7.53493281 L31.4454726,6.64693924 L32.3368787,6.64693924 C32.7439836,6.64693924 33.0742762,6.31829359 33.0742762,5.91236462 C33.0742762,5.50681821 32.7439836,5.17779 32.3368787,5.17779 L31.4454726,5.17779 L31.4454726,4.28979633 C31.4454726,3.88425003 31.11518,3.55522171 30.7080751,3.55522171 C30.3009702,3.55522171 29.9706775,3.88425003 29.9706775,4.28979633 L29.9706775,5.17779 L29.0792715,5.17779 C28.6717825,5.17779 28.3418739,5.50681821 28.3418739,5.91236462 C28.3418739,6.31829359 28.6717825,6.64693924 29.0792715,6.64693924 L29.0792715,6.64693924 Z" id="Path"></path>
                    <path d="M35.993735,11.4877862 L35.1023289,11.4877862 L35.1023289,10.59941 C35.1023289,10.1938635 34.7720363,9.86483537 34.3649314,9.86483537 C33.9574423,9.86483537 33.6275338,10.1938635 33.6275338,10.59941 L33.6275338,11.4874036 L32.7361278,11.4874036 C32.3286387,11.4874036 31.9987302,11.8164318 31.9987302,12.2219782 C31.9987302,12.6279072 32.3286387,12.9565529 32.7361278,12.9565529 L33.6275338,12.9565529 L33.6275338,13.8445464 C33.6275338,14.2504754 33.9574423,14.5791211 34.3649314,14.5791211 C34.7720363,14.5791211 35.1023289,14.2504754 35.1023289,13.8445464 L35.1023289,12.9565529 L35.993735,12.9565529 C36.4008399,12.9565529 36.7311325,12.6279072 36.7311325,12.2219782 C36.7311325,11.8164318 36.4008399,11.4877862 35.993735,11.4877862 Z" id="Path"></path>
                </g>
            </g>
        </g>
    </g>
</svg>