<?xml version="1.0" encoding="UTF-8"?>
<svg width="567px" height="630px" viewBox="0 0 567 630" version="1.1" xmlns="http://www.w3.org/2000/svg" xmlns:xlink="http://www.w3.org/1999/xlink">
    <!-- Generator: Sketch 63.1 (92452) - https://sketch.com -->
    <title>hexagon (2)</title>
    <desc>Created with Sketch.</desc>
    <defs>
        <linearGradient x1="44.8152721%" y1="-20.7824921%" x2="44.8152721%" y2="70.8792965%" id="linearGradient-1">
            <stop stop-color="#AF238F" offset="0%"></stop>
            <stop stop-color="#8924A1" offset="0%"></stop>
            <stop stop-color="#8724A2" offset="0%"></stop>
            <stop stop-color="#6F24AF" offset="72.3052154%"></stop>
            <stop stop-color="#5225BD" offset="100%"></stop>
        </linearGradient>
    </defs>
    <g id="Page-1" stroke="none" stroke-width="1" fill="none" fill-rule="evenodd">
        <g id="hexagon-(2)" fill="url(#linearGradient-1)" fill-rule="nonzero">
            <path d="M423,342 C502.529004,342 567,406.470996 567,486 C567,565.529004 502.529004,630 423,630 C343.470996,630 279,565.529004 279,486 C279,406.470996 343.470996,342 423,342 Z M451.333333,95 C462.626347,95 471.813333,104.186987 471.813333,115.48 C471.813333,126.773013 462.626347,135.96 451.333333,135.96 C440.04032,135.96 430.853333,126.773013 430.853333,115.48 C430.853333,104.186987 440.04032,95 451.333333,95 Z M451.333333,108.653333 C455.096533,108.653333 458.16,111.7168 458.16,115.48 C458.16,119.2432 455.096533,122.306667 451.333333,122.306667 C447.570133,122.306667 444.506667,119.2432 444.506667,115.48 C444.506667,111.7168 447.570133,108.653333 451.333333,108.653333 Z M483.698333,57.12 L486.555333,57.12 L486.555333,59.97 C486.555333,64.112 489.911333,67.47 494.052333,67.47 C498.193333,67.47 501.549333,64.112 501.549333,59.97 L501.549333,57.12 L504.406333,57.12 C508.546333,57.12 511.903333,53.762 511.903333,49.62 C511.903333,45.478 508.547333,42.12 504.406333,42.12 L501.549333,42.12 L501.549333,39.271 C501.549333,35.129 498.193333,31.771 494.052333,31.771 C489.911333,31.771 486.555333,35.129 486.555333,39.271 L486.555333,42.12 L483.698333,42.12 C479.558333,42.12 476.201333,45.478 476.201333,49.62 C476.201333,53.762 479.558333,57.12 483.698333,57.12 Z M486.784333,138.765 C482.644333,138.765 479.287333,142.123 479.287333,146.265 C479.287333,150.407 482.643333,153.765 486.784333,153.765 C502.658333,153.765 515.573333,166.664 515.573333,182.519 C515.573333,186.661 518.929333,190.019 523.070333,190.019 C527.211333,190.019 530.567333,186.661 530.567333,182.519 C530.567333,166.664 543.482333,153.765 559.356333,153.765 C563.496333,153.765 566.853333,150.407 566.853333,146.265 C566.853333,142.123 563.497333,138.765 559.356333,138.765 C543.482333,138.765 530.567333,125.866 530.567333,110.011 C530.567333,105.869 527.211333,102.511 523.070333,102.511 C518.929333,102.511 515.573333,105.869 515.573333,110.011 C515.573333,125.866 502.659333,138.765 486.784333,138.765 L486.784333,138.765 Z M523.070333,134.471 C526.213333,139.112 530.225333,143.122 534.868333,146.265 C530.225333,149.408 526.213333,153.418 523.070333,158.059 C519.927333,153.418 515.915333,149.408 511.272333,146.265 C515.915333,143.123 519.927333,139.113 523.070333,134.471 Z M381.619,444.362 C385.761,444.362 389.119,441.005 389.119,436.862 C389.119,432.72 385.761,429.362 381.619,429.362 L358.135,429.362 C353.993,429.362 350.635,432.72 350.635,436.862 C350.635,441.005 353.993,444.362 358.135,444.362 L381.619,444.362 Z M371.569,522.233 C374.498,519.303 374.498,514.555 371.569,511.626 L346.435,486.492 C343.506,483.564 338.757,483.564 335.828,486.492 C332.899,489.422 332.899,494.17 335.828,497.099 L360.962,522.233 C363.892,525.162 368.64,525.161 371.569,522.233 L371.569,522.233 Z M296.384,181.782 C300.526,181.782 303.884,178.424 303.884,174.282 L303.884,149.519 C303.884,145.376 300.526,142.019 296.384,142.019 C292.242,142.019 288.884,145.376 288.884,149.519 L288.884,174.282 C288.884,178.424 292.242,181.782 296.384,181.782 Z M401.951,218.714 L427.859,192.806 C430.788,189.876 430.788,185.128 427.859,182.199 C424.93,179.271 420.181,179.271 417.253,182.199 L391.345,208.107 C388.416,211.037 388.416,215.785 391.345,218.714 C394.274,221.643 399.022,221.642 401.951,218.714 Z M499.829,404.774 C483.654,388.6 457.335,388.6 441.161,404.774 L422.486,423.45 L422.486,280.925 C422.486,261.623 407.743,245.81 388.922,244.923 C380.957,244.559 373.334,246.779 366.97,251.273 L366.97,241.169 C366.97,212.64 335.071,196.426 312.309,211.881 C299.981,202.523 283.219,202.588 271.023,211.197 L271.023,192.297 C271.023,163.646 238.518,147.069 215.359,163.559 C213.776,145.8 199.668,131.726 181.943,130.891 C161.724,129.957 144.991,146.001 144.991,166.11 L144.991,176.214 C138.627,171.722 131.003,169.5 123.038,169.864 C104.218,170.751 89.475,186.565 89.475,205.867 L89.475,216.575 C89.475,220.718 92.833,224.075 96.975,224.075 C101.117,224.075 104.475,220.718 104.475,216.575 L104.475,205.866 C104.475,194.776 113.119,185.348 123.744,184.848 C135.396,184.312 144.991,193.54 144.991,205.082 L144.991,301.499 C144.991,305.642 148.349,308.999 152.491,308.999 C156.633,308.999 159.991,305.642 159.991,301.499 C159.991,285.037 159.991,177.152 159.991,166.108 C159.991,154.832 169.29,145.365 181.238,145.873 C191.863,146.374 200.508,155.803 200.508,166.892 L200.508,301.498 C200.508,305.641 203.866,308.998 208.008,308.998 C212.15,308.998 215.508,305.641 215.508,301.498 L215.508,192.295 C215.508,181.125 224.595,172.037 235.766,172.037 C246.936,172.037 256.024,181.125 256.024,192.295 L256.024,301.498 C256.024,305.641 259.382,308.998 263.524,308.998 C267.666,308.998 271.024,305.641 271.024,301.498 L271.024,240.064 C271.024,228.629 280.472,219.327 292.271,219.829 C302.896,220.33 311.54,229.759 311.54,240.849 L311.54,434.34 C311.54,448.612 303.177,461.721 290.233,467.733 C276.312,474.202 267.317,488.3 267.317,503.651 L267.317,522.4 C267.317,531.58 259.849,539.048 250.668,539.048 C212.016,539.048 204.973,539.048 165.348,539.048 C156.168,539.048 148.7,531.579 148.7,522.4 L148.7,503.651 C148.7,488.3 139.704,474.202 125.783,467.733 C109.565,460.198 94.929,449.965 82.283,437.319 L22.739,377.776 C12.413,367.449 12.413,350.646 22.739,340.32 C33.066,329.994 49.868,329.992 60.195,340.32 L91.674,371.799 C96.39,376.516 104.477,373.16 104.477,366.495 L104.477,252.291 C104.477,248.149 101.119,244.791 96.977,244.791 C92.835,244.791 89.477,248.148 89.477,252.291 L89.477,348.39 L70.802,329.714 C54.627,313.539 28.308,313.54 12.134,329.715 C-4.041,345.89 -4.041,372.208 12.134,388.384 L71.678,447.928 C85.57,461.819 101.648,473.06 119.464,481.338 C128.113,485.357 133.701,494.115 133.701,503.652 L133.701,522.401 C133.701,539.852 147.898,554.049 165.349,554.049 L210.955,554.049 C213.472,555.532 215.511,556.445 215.41,556.398 C224.06,560.416 229.648,569.175 229.648,578.712 L229.648,597.461 C229.648,614.912 243.845,629.109 261.296,629.109 L324.354,629.109 C328.496,629.109 331.854,625.752 331.854,621.609 C331.854,617.466 328.496,614.109 324.354,614.109 L261.296,614.109 C252.116,614.109 244.648,606.64 244.648,597.461 L244.648,578.712 C244.648,569.6 241.46,560.945 235.972,554.049 L250.669,554.049 C268.12,554.049 282.318,539.852 282.318,522.401 L282.318,503.652 C282.318,494.115 287.906,485.356 296.555,481.338 C314.771,472.875 326.541,454.428 326.541,434.341 L326.541,240.849 C326.541,234.528 324.951,228.586 322.164,223.414 C335.216,216.085 351.973,225.592 351.973,241.168 L351.973,376.559 C351.973,380.702 355.331,384.059 359.473,384.059 C363.615,384.059 366.973,380.702 366.973,376.559 L366.973,280.141 C366.973,268.599 376.577,259.362 388.22,259.908 C398.845,260.408 407.489,269.837 407.489,280.926 L407.489,441.557 C407.489,448.219 415.576,451.579 420.292,446.861 L451.771,415.382 C462.098,405.056 478.9,405.055 489.227,415.381 C499.553,425.708 499.553,442.511 489.227,452.837 L429.683,512.38 C417.037,525.026 402.401,535.259 386.182,542.795 C372.261,549.264 363.266,563.362 363.266,578.713 L363.266,597.462 C363.266,603.202 360.365,608.466 355.506,611.543 C352.006,613.759 350.966,618.392 353.182,621.892 C355.409,625.409 360.049,626.422 363.531,624.215 C372.757,618.373 378.265,608.371 378.265,597.462 L378.265,578.713 C378.265,569.176 383.853,560.417 392.502,556.399 C410.319,548.121 426.397,536.879 440.289,522.988 L499.832,463.444 C516.004,447.268 516.004,420.95 499.829,404.774 L499.829,404.774 Z M285.917,376.604 L285.917,365.298 C285.917,361.155 282.559,357.798 278.417,357.798 C274.275,357.798 270.917,361.155 270.917,365.298 L270.917,376.604 C270.917,380.747 274.275,384.104 278.417,384.104 C282.559,384.104 285.917,380.747 285.917,376.604 Z M145.096,376.604 L145.096,365.298 C145.096,361.155 141.738,357.798 137.596,357.798 C133.454,357.798 130.096,361.155 130.096,365.298 L130.096,376.604 C130.096,380.747 133.454,384.104 137.596,384.104 C141.738,384.104 145.096,380.747 145.096,376.604 Z M237.83,385.987 C237.83,363.395 216.931,363.395 208.007,363.395 C199.083,363.395 178.184,363.395 178.184,385.987 C178.184,403.896 191.562,418.466 208.007,418.466 C224.451,418.466 237.83,403.896 237.83,385.987 Z M193.183,385.987 C193.183,380.932 193.183,378.395 208.006,378.395 C222.829,378.395 222.829,380.932 222.829,385.987 C222.829,395.626 216.179,403.466 208.006,403.466 C199.833,403.466 193.183,395.626 193.183,385.987 Z M356.350333,51.254 C372.224333,51.254 385.139333,64.153 385.139333,80.008 C385.139333,84.15 388.495333,87.508 392.636333,87.508 C396.777333,87.508 400.133333,84.15 400.133333,80.008 C400.133333,64.153 413.048333,51.254 428.922333,51.254 C433.062333,51.254 436.419333,47.896 436.419333,43.754 C436.419333,39.612 433.063333,36.254 428.922333,36.254 C413.047333,36.254 400.133333,23.355 400.133333,7.5 C400.133333,3.358 396.777333,0 392.636333,0 C388.495333,0 385.139333,3.358 385.139333,7.5 C385.139333,23.355 372.224333,36.254 356.350333,36.254 C352.210333,36.254 348.853333,39.612 348.853333,43.754 C348.853333,47.896 352.210333,51.254 356.350333,51.254 L356.350333,51.254 Z M392.636333,31.959 C395.779333,36.601 399.791333,40.611 404.434333,43.753 C399.791333,46.896 395.779333,50.906 392.636333,55.547 C389.493333,50.905 385.481333,46.895 380.838333,43.753 C385.481333,40.611 389.493333,36.601 392.636333,31.959 Z" id="Shape"></path>
        </g>
    </g>
</svg>